<svg width="22" height="21" viewBox="0 0 22 21" fill="none" xmlns="http://www.w3.org/2000/svg">
<path d="M1 19.25C0.585786 19.25 0.25 19.5858 0.25 20C0.25 20.4142 0.585786 20.75 1 20.75V19.25ZM21 20.75C21.4142 20.75 21.75 20.4142 21.75 20C21.75 19.5858 21.4142 19.25 21 19.25V20.75ZM3.75 10.5C3.75 10.0858 3.41421 9.75 3 9.75C2.58579 9.75 2.25 10.0858 2.25 10.5H3.75ZM2.25 20C2.25 20.4142 2.58579 20.75 3 20.75C3.41421 20.75 3.75 20.4142 3.75 20H2.25ZM19.75 10.5C19.75 10.0858 19.4142 9.75 19 9.75C18.5858 9.75 18.25 10.0858 18.25 10.5H19.75ZM18.25 20C18.25 20.4142 18.5858 20.75 19 20.75C19.4142 20.75 19.75 20.4142 19.75 20H18.25ZM3 3.71429V2.96429C2.64154 2.96429 2.33319 3.21795 2.26407 3.56968L3 3.71429ZM19 3.71429L19.7359 3.56968C19.6668 3.21795 19.3585 2.96429 19 2.96429V3.71429ZM20.3333 10.5V11.25C20.5576 11.25 20.7701 11.1497 20.9125 10.9765C21.055 10.8033 21.1125 10.5754 21.0693 10.3554L20.3333 10.5ZM1.66667 10.5L0.930739 10.3554C0.887502 10.5754 0.944998 10.8033 1.08746 10.9765C1.22993 11.1497 1.44242 11.25 1.66667 11.25V10.5ZM2.33333 0.25C1.91912 0.25 1.58333 0.585786 1.58333 1C1.58333 1.41421 1.91912 1.75 2.33333 1.75V0.25ZM19.6667 1.75C20.0809 1.75 20.4167 1.41421 20.4167 1C20.4167 0.585786 20.0809 0.25 19.6667 0.25V1.75ZM6.41667 10.5C6.41667 10.0858 6.08088 9.75 5.66667 9.75C5.25245 9.75 4.91667 10.0858 4.91667 10.5H6.41667ZM5.66667 14.5714H4.91667V15.3214H5.66667V14.5714ZM16.3333 14.5714V15.3214H17.0833V14.5714H16.3333ZM17.0833 10.5C17.0833 10.0858 16.7475 9.75 16.3333 9.75C15.9191 9.75 15.5833 10.0858 15.5833 10.5H17.0833ZM1 20.75H21V19.25H1V20.75ZM2.25 10.5V20H3.75V10.5H2.25ZM18.25 10.5V20H19.75V10.5H18.25ZM3 4.46429H19V2.96429H3V4.46429ZM18.2641 3.85889L19.5974 10.6446L21.0693 10.3554L19.7359 3.56968L18.2641 3.85889ZM20.3333 9.75H1.66667V11.25H20.3333V9.75ZM2.40259 10.6446L3.73593 3.85889L2.26407 3.56968L0.930739 10.3554L2.40259 10.6446ZM2.33333 1.75H19.6667V0.25H2.33333V1.75ZM4.91667 10.5V14.5714H6.41667V10.5H4.91667ZM5.66667 15.3214H16.3333V13.8214H5.66667V15.3214ZM17.0833 14.5714V10.5H15.5833V14.5714H17.0833Z" fill="#0E0F0F"/>
</svg>
