<svg width="20" height="22" viewBox="0 0 20 22" fill="none" xmlns="http://www.w3.org/2000/svg">
<path d="M1 4.99997H3M3 4.99997H19M3 4.99997V19C3 19.5304 3.21071 20.0391 3.58579 20.4142C3.96086 20.7893 4.46957 21 5 21H15C15.5304 21 16.0391 20.7893 16.4142 20.4142C16.7893 20.0391 17 19.5304 17 19V4.99997H3ZM6 4.99997V2.99997C6 2.46954 6.21071 1.96083 6.58579 1.58576C6.96086 1.21068 7.46957 0.999969 8 0.999969H12C12.5304 0.999969 13.0391 1.21068 13.4142 1.58576C13.7893 1.96083 14 2.46954 14 2.99997V4.99997M8 9.99997V16M12 9.99997V16" stroke="#0E0F0F" stroke-width="1.5" stroke-linecap="round" stroke-linejoin="round"/>
</svg>
