<svg width="19" height="19" viewBox="0 0 19 19" fill="none" xmlns="http://www.w3.org/2000/svg">
<path d="M8.38585 0.927068C8.68521 0.00575697 9.98862 0.00575572 10.288 0.927066L11.8066 5.60083C11.9404 6.01285 12.3244 6.29181 12.7576 6.29181H17.6719C18.6406 6.29181 19.0434 7.53143 18.2597 8.10083L14.284 10.9894C13.9335 11.244 13.7868 11.6954 13.9207 12.1074L15.4393 16.7812C15.7386 17.7025 14.6841 18.4686 13.9004 17.8992L9.9247 15.0107C9.57421 14.756 9.09961 14.756 8.74913 15.0107L4.77339 17.8992C3.98967 18.4686 2.93519 17.7025 3.23454 16.7812L4.75314 12.1074C4.88702 11.6954 4.74036 11.244 4.38987 10.9894L0.414132 8.10083C-0.369582 7.53143 0.0331932 6.29181 1.00192 6.29181H5.9162C6.34943 6.29181 6.73338 6.01285 6.86726 5.60083L8.38585 0.927068Z" fill="#FC441D"/>
</svg>
